<?xml version="1.0" encoding="UTF-8"?>
<svg version="1.1" xmlns="http://www.w3.org/2000/svg" width="512" height="512">
<path d="M0 0 C1.17413397 -0.00453111 2.34826794 -0.00906223 3.55798173 -0.01373065 C6.80881536 -0.02418942 10.05950963 -0.02570243 13.31035471 -0.02334189 C16.81969182 -0.02293324 20.32899611 -0.03397753 23.83831787 -0.04345703 C30.71097658 -0.06005797 37.58360097 -0.06556618 44.45627806 -0.06668179 C50.04434587 -0.06763276 55.63240238 -0.07174552 61.22046661 -0.07808304 C77.07157501 -0.09569354 92.92265634 -0.10492229 108.77377459 -0.10342209 C109.62800967 -0.10334218 110.48224474 -0.10326227 111.36236572 -0.10317993 C112.64528713 -0.10305729 112.64528713 -0.10305729 113.95412615 -0.10293217 C127.8112685 -0.10211949 141.6683021 -0.1212532 155.52541301 -0.14945666 C169.76155522 -0.17820238 183.99764442 -0.19199601 198.23381639 -0.19026911 C206.22320286 -0.18960576 214.21247534 -0.19507398 222.20183563 -0.21662521 C229.00498624 -0.23485932 235.8079712 -0.23916618 242.61113569 -0.22560637 C246.07978865 -0.21908766 249.54812401 -0.21891919 253.01674652 -0.23631287 C256.78358258 -0.25175774 260.54958796 -0.24246058 264.31640625 -0.22705078 C265.94746421 -0.24248147 265.94746421 -0.24248147 267.61147285 -0.25822389 C276.91771437 -0.17426015 284.96455396 2.10467526 291.88092041 8.56430054 C299.10045112 16.59418673 300.77318837 24.72496401 300.78717041 35.26742554 C300.8116626 36.23937866 300.83615479 37.21133179 300.86138916 38.21273804 C300.88529345 44.06131993 300.53647081 47.77317129 296.41217041 52.26742554 C290.79919593 57.32118231 285.30496558 56.78892029 278.01373291 56.65805054 C276.82363617 56.65239075 275.63353943 56.64673096 274.40737915 56.64089966 C270.61689555 56.61856005 266.82736696 56.56836516 263.03717041 56.51742554 C260.46296534 56.49735755 257.88874541 56.47910731 255.31451416 56.46273804 C249.01340863 56.41870298 242.71285776 56.35181359 236.41217041 56.26742554 C236.43311768 57.42677612 236.45406494 58.58612671 236.47564697 59.78060913 C236.54859271 64.12292911 236.59416668 68.46519603 236.63189697 72.80795288 C236.65188904 74.67979063 236.67909209 76.55156692 236.71392822 78.42318726 C237.1430677 102.08896707 237.1430677 102.08896707 228.11529541 111.73226929 C223.42667018 115.95848423 218.82083534 118.78677567 212.41217041 119.26742554 C212.41217041 119.92742554 212.41217041 120.58742554 212.41217041 121.26742554 C213.21654541 121.30867554 214.02092041 121.34992554 214.84967041 121.39242554 C222.30765025 123.22421006 227.6255867 127.8715142 232.12310791 133.94711304 C236.47348656 141.77779461 236.91525991 148.46623724 236.85821533 157.35873413 C236.84965658 159.39571742 236.87861568 161.42993335 236.91021729 163.46664429 C236.90957275 164.76473022 236.90892822 166.06281616 236.90826416 167.40023804 C236.91011719 168.57473511 236.91197021 169.74923218 236.91387939 170.95932007 C236.17934519 175.80259913 233.92219274 178.93505289 230.28717041 182.14242554 C228.41217041 183.26742554 228.41217041 183.26742554 226.41217041 183.26742554 C226.41217041 183.92742554 226.41217041 184.58742554 226.41217041 185.26742554 C227.52592041 185.60773804 227.52592041 185.60773804 228.66217041 185.95492554 C232.50363604 187.78835232 234.52705453 190.49719378 236.41217041 194.26742554 C236.51347352 195.91726818 236.55161585 197.57115882 236.55934143 199.22409058 C236.57007439 200.79681229 236.57007439 200.79681229 236.58102417 202.40130615 C236.58371307 203.55659821 236.58640198 204.71189026 236.58917236 205.90219116 C236.59574356 207.11537018 236.60231476 208.32854919 236.60908508 209.57849121 C236.62886172 213.6102218 236.64049425 217.6419125 236.65045166 221.67367554 C236.65449977 223.06335978 236.65861671 224.45304382 236.66280174 225.84272766 C236.68186294 232.3770462 236.69608754 238.91135344 236.70441371 245.44569445 C236.71416614 252.97445505 236.74042908 260.50292008 236.7809146 268.03157663 C236.81116183 273.85762983 236.82589102 279.68359877 236.82919472 285.50972891 C236.83153702 288.98547569 236.84038801 292.46090709 236.8656559 295.93656921 C236.8934556 299.82364126 236.88907925 303.71033134 236.88214111 307.59750366 C236.9013562 309.30615097 236.9013562 309.30615097 236.92095947 311.04931641 C236.85943955 320.53837372 234.7241723 328.67278716 228.11529541 335.73226929 C223.42667018 339.95848423 218.82083534 342.78677567 212.41217041 343.26742554 C212.41217041 343.92742554 212.41217041 344.58742554 212.41217041 345.26742554 C213.21654541 345.30867554 214.02092041 345.34992554 214.84967041 345.39242554 C222.30765025 347.22421006 227.6255867 351.8715142 232.12310791 357.94711304 C235.75263771 364.48026668 236.8726772 370.09195998 236.84576416 377.44711304 C236.85100601 378.29991852 236.85624786 379.152724 236.86164856 380.03137207 C236.86803443 381.82472654 236.86677661 383.6181231 236.85821533 385.41146851 C236.84971382 388.12855032 236.87849993 390.84351989 236.91021729 393.56039429 C236.95725429 405.09247623 236.37323242 414.89434399 228.11529541 423.73617554 C219.85167581 431.16585188 211.63486221 432.56539248 200.82434082 432.53485107 C199.65020685 432.53938219 198.47607288 432.5439133 197.26635909 432.54858172 C194.01552546 432.55904049 190.76483119 432.56055351 187.51398611 432.55819297 C184.004649 432.55778432 180.49534471 432.5688286 176.98602295 432.57830811 C170.11336424 432.59490904 163.24073985 432.60041725 156.36806276 432.60153286 C150.77999495 432.60248383 145.19193844 432.60659659 139.60387421 432.61293411 C123.75276581 432.63054461 107.90168448 432.63977337 92.05056623 432.63827316 C91.19633115 432.63819325 90.34209608 432.63811334 89.4619751 432.63803101 C88.17905369 432.63790836 88.17905369 432.63790836 86.87021467 432.63778324 C73.01307232 432.63697056 59.15603872 432.65610428 45.29892781 432.68430774 C31.0627856 432.71305345 16.8266964 432.72684708 2.59052444 432.72512019 C-5.39886204 432.72445683 -13.38813452 432.72992506 -21.37749481 432.75147629 C-28.18064542 432.76971039 -34.98363038 432.77401725 -41.78679487 432.76045744 C-45.25544783 432.75393874 -48.72378319 432.75377027 -52.1924057 432.77116394 C-55.95924176 432.78660882 -59.72524714 432.77731166 -63.49206543 432.76190186 C-64.57943741 432.77218898 -65.66680938 432.78247611 -66.78713202 432.79307497 C-76.09337355 432.70911122 -84.14021314 430.43017581 -91.05657959 423.97055054 C-98.2761103 415.94066434 -99.94884755 407.80988706 -99.96282959 397.26742554 C-99.99956787 395.80949585 -99.99956787 395.80949585 -100.03704834 394.32211304 C-100.06095263 388.47353114 -99.71212999 384.76167979 -95.58782959 380.26742554 C-78.90988469 369.1487956 -55.63222476 376.26742554 -35.58782959 376.26742554 C-35.58782959 339.30742554 -35.58782959 302.34742554 -35.58782959 264.26742554 C-44.13431396 264.31383179 -52.68079834 264.36023804 -61.48626709 264.40805054 C-67.59950629 264.43109665 -73.71271272 264.45160001 -79.82596779 264.46844101 C-87.73871121 264.49057693 -95.65128532 264.51864704 -103.56390381 264.56918335 C-109.83026715 264.60918611 -116.09650253 264.63489016 -122.36299002 264.64377952 C-125.677848 264.64897176 -128.99225696 264.66321507 -132.30701828 264.69034576 C-136.01721398 264.71949779 -139.72665838 264.72337643 -143.43695068 264.7215271 C-144.52308655 264.7359082 -145.60922241 264.75028931 -146.72827148 264.7651062 C-156.06788684 264.71492731 -164.11504451 262.45368236 -171.05657959 255.97055054 C-177.16042443 249.18158026 -179.83132625 242.06538954 -179.85525513 232.93154907 C-179.85978624 232.21477297 -179.86431735 231.49799686 -179.86898577 230.75950027 C-179.88159751 228.36917194 -179.88001151 225.97907241 -179.87835693 223.5887146 C-179.88434427 221.87008371 -179.89115029 220.1514555 -179.89871216 218.43283081 C-179.91636008 213.77149188 -179.92106708 209.11022642 -179.92234373 204.44885731 C-179.92376676 201.53373517 -179.92803926 198.61863162 -179.93333817 195.7035141 C-179.95183559 185.52526161 -179.96000928 175.34706146 -179.95843506 165.16879272 C-179.95723426 155.69504631 -179.97832525 146.22152794 -180.00992239 136.74783921 C-180.03611443 128.60324481 -180.0468011 120.45872475 -180.04552424 112.31408858 C-180.0450154 107.45458312 -180.05065528 102.59528031 -180.07188034 97.73581696 C-180.09131168 93.16221648 -180.09135385 88.58901091 -180.07684708 84.01539612 C-180.07476383 82.34252594 -180.07943087 80.66963073 -180.09156799 78.99680328 C-180.16904847 67.57238345 -179.47025465 57.55630994 -171.29095459 48.79867554 C-162.98463801 41.33061109 -154.75531452 39.9693899 -143.89105225 40.04037476 C-142.13409531 40.03993668 -142.13409531 40.03993668 -140.34164429 40.03948975 C-136.47831764 40.04088071 -132.61518496 40.05643123 -128.75189209 40.07211304 C-126.07003452 40.075844 -123.38818763 40.07878899 -120.70632935 40.08068848 C-114.37412092 40.08689502 -108.04198187 40.10329461 -101.70980394 40.12338746 C-94.49820357 40.14577221 -87.28659983 40.15674635 -80.07497334 40.16677833 C-65.24589001 40.1876616 -50.41686101 40.22282147 -35.58782959 40.26742554 C-35.6161084 38.63172607 -35.6161084 38.63172607 -35.6449585 36.96298218 C-35.66020807 35.51368659 -35.67499477 34.06438609 -35.68939209 32.61508179 C-35.70300781 31.89856445 -35.71662354 31.18204712 -35.73065186 30.44381714 C-35.79429998 21.88803984 -33.16491224 15.08796352 -27.29095459 8.79867554 C-19.02733499 1.3689992 -10.81052139 -0.03054141 0 0 Z " fill="#F9BD18" transform="translate(195.58782958984375,39.732574462890625)"/>
<path d="M0 0 C0.90320838 -0.00523668 1.80641677 -0.01047336 2.7369951 -0.01586872 C5.75833269 -0.03084974 8.77950064 -0.03157347 11.8008728 -0.03224182 C13.9694548 -0.0398647 16.1380341 -0.04829242 18.30661011 -0.0574646 C24.19530771 -0.07940675 30.08395338 -0.08820842 35.97268724 -0.09329104 C39.65434795 -0.09693566 43.33599508 -0.10317636 47.0176506 -0.11029243 C59.86955105 -0.13478824 72.72141114 -0.14783863 85.57333374 -0.15138245 C97.53960911 -0.15501536 109.50560056 -0.18489305 121.47180998 -0.22678703 C131.75484487 -0.26152175 142.03779479 -0.27693146 152.32088792 -0.27762848 C158.45815936 -0.27842035 164.59516926 -0.28711787 170.73237991 -0.31562614 C176.5092654 -0.34186019 182.28567353 -0.34398182 188.06259155 -0.3279705 C190.17646707 -0.32616015 192.29037036 -0.33280913 194.40418625 -0.34878922 C207.88572241 -0.44444872 220.07118527 -0.2602973 230.4703064 9.60618591 C237.22319445 17.31603404 239.23398728 24.92793409 239.19194031 34.9907074 C239.19576585 35.96348601 239.1995914 36.93626463 239.20353287 37.93852139 C239.21384374 41.19498551 239.20987434 44.4512727 239.2059021 47.70774841 C239.21024958 50.04369774 239.21543285 52.37964565 239.22138977 54.71559143 C239.23478587 61.05842797 239.23535784 67.40120495 239.23282647 73.74405289 C239.23162212 79.70714063 239.23783342 85.67021833 239.24325993 91.63330305 C239.25413112 104.16340662 239.25197477 116.69348326 239.24587508 129.22358835 C239.24070435 140.68433883 239.25196621 152.14500436 239.2709733 163.60573804 C239.29034791 175.37843421 239.29860849 187.15109017 239.29485005 198.92380238 C239.2930352 205.5314105 239.29569374 212.13894079 239.30956459 218.74653625 C239.32211666 224.95832365 239.32022357 231.16994061 239.3071537 237.38172531 C239.30478281 239.66259188 239.30754086 241.94347034 239.31577682 244.22432327 C239.32620222 247.33561527 239.31817718 250.4463309 239.3054657 253.55760193 C239.31283998 254.46207786 239.32021427 255.36655378 239.32781202 256.29843807 C239.28423722 261.36118748 238.78856844 264.90921618 235.9312439 269.27415466 C231.17672008 272.59643963 226.83353843 272.72874832 221.2437439 272.70774841 C220.42301392 272.71299026 219.60228394 272.71823212 218.75668335 272.72363281 C217.02874885 272.73003021 215.30077067 272.72874569 213.57284546 272.72019958 C210.93891506 272.71167948 208.30714851 272.74049666 205.6734314 272.77220154 C203.98853621 272.77381362 202.30363721 272.77323589 200.6187439 272.77024841 C199.44662354 272.78709938 199.44662354 272.78709938 198.25082397 272.80429077 C197.50985474 272.79490982 196.7688855 272.78552887 196.00546265 272.77586365 C195.36181763 272.77569748 194.71817261 272.77553131 194.05502319 272.77536011 C187.53853708 271.23748924 184.39635454 266.49940606 180.68773842 261.34061241 C168.57879194 244.66572348 153.53169811 226.26934546 132.2202214 222.54584229 C112.63274984 219.69027526 92.39088538 220.93261917 72.70142996 221.95779169 C63.05269454 222.45252254 53.40019935 222.66999532 43.74179077 222.88157654 C40.33375356 222.95690971 36.92575719 223.03370817 33.51780701 223.11288452 C32.69231419 223.1319693 31.86682137 223.15105408 31.01631361 223.17071718 C25.38600522 223.30874327 19.76234926 223.52607064 14.13606262 223.77685547 C11.90700403 223.86810123 9.67788283 223.95759237 7.44872475 224.04637146 C5.41304321 224.13440244 3.37840278 224.24557427 1.34390259 224.3576355 C-8.10944737 224.72813969 -15.29339904 223.35216952 -22.8812561 217.52415466 C-28.79759993 211.99851278 -32.72108586 204.94862252 -33.32602501 196.81514359 C-33.3293767 195.53577801 -33.33272839 194.25641243 -33.33618164 192.9382782 C-33.34071275 192.22150209 -33.34524387 191.50472599 -33.34991229 190.76622939 C-33.36252402 188.37590107 -33.36093802 185.98580154 -33.35928345 183.59544373 C-33.36527078 181.87681283 -33.3720768 180.15818462 -33.37963867 178.43955994 C-33.3972866 173.77822101 -33.40199359 169.11695554 -33.40327024 164.45558643 C-33.40469327 161.54046429 -33.40896578 158.62536074 -33.41426468 155.71024323 C-33.4327621 145.53199074 -33.44093579 135.35379059 -33.43936157 125.17552185 C-33.43816077 115.70177544 -33.45925176 106.22825707 -33.4908489 96.75456834 C-33.51704094 88.60997394 -33.52772761 80.46545388 -33.52645075 72.32081771 C-33.52594191 67.46131225 -33.5315818 62.60200943 -33.55280685 57.74254608 C-33.5722382 53.1689456 -33.57228037 48.59574004 -33.55777359 44.02212524 C-33.55569034 42.34925507 -33.56035739 40.67635985 -33.57249451 39.00353241 C-33.64997499 27.57911257 -32.95118116 17.56303907 -24.7718811 8.80540466 C-17.37504954 2.15504234 -9.76697433 -0.02814375 0 0 Z " fill="#555A6D" transform="translate(49.068756103515625,79.72584533691406)"/>
<path d="M0 0 C1.01699213 -0.0055344 2.03398425 -0.01106879 3.08179432 -0.0167709 C6.48813314 -0.03037943 9.89373953 -0.01540643 13.30006409 -0.00050354 C15.74276541 -0.00428665 18.1854646 -0.00978661 20.62815857 -0.01687622 C26.5734337 -0.0293985 32.518515 -0.02325876 38.46376806 -0.00820064 C45.39010713 0.00867339 52.31639344 0.00544739 59.24274672 0.00170528 C71.60352954 -0.00417183 83.96421046 0.00999176 96.32496643 0.03465271 C108.31328655 0.05856786 120.3014705 0.06565881 132.28981018 0.05516052 C145.34948488 0.04374452 158.40909662 0.04183008 171.46877056 0.05625862 C172.86209523 0.05778442 174.2554199 0.05930478 175.64874458 0.06081963 C176.33425313 0.06157744 177.01976167 0.06233525 177.72604321 0.06311603 C182.55139508 0.067854 187.3767188 0.06601085 192.20207024 0.06175423 C198.70031362 0.05630559 205.1984104 0.0670958 211.69662094 0.08870888 C214.08187665 0.09427404 216.46715047 0.09474454 218.85240746 0.08975601 C222.10786893 0.08380136 225.36275447 0.09631259 228.61816406 0.11352539 C229.56252758 0.10751535 230.5068911 0.1015053 231.47987169 0.09531313 C237.63985687 0.15455396 242.72853716 0.85767683 247.61476135 4.96604919 C251.52280815 10.04651003 251.91367777 13.2137132 251.95851135 19.54295349 C252.14249137 30.53230961 254.26365397 39.56116865 262.0561676 47.81370544 C266.59256818 51.58748755 271.26297628 53.76732983 276.87257385 55.50120544 C276.87257385 55.83120544 276.87257385 56.16120544 276.87257385 56.50120544 C242.26422747 56.59280573 207.65590882 56.66326688 173.04746736 56.70546676 C168.95954693 56.71046945 164.87162674 56.71564676 160.78370667 56.72093201 C159.96989194 56.72198125 159.15607721 56.72303049 158.31760143 56.72411153 C145.14877226 56.74150612 131.9800131 56.77303859 118.81122543 56.80981663 C105.29397317 56.84725238 91.77675753 56.86944686 78.25945556 56.87755942 C69.92177849 56.88304174 61.58429931 56.9003431 53.24668317 56.93287131 C47.52551177 56.95405175 41.80444236 56.96039753 36.08323462 56.95521095 C32.78470756 56.95265461 29.48659744 56.95871353 26.18811607 56.97802734 C22.60488856 56.99797759 19.02250242 56.99312521 15.43925476 56.98222351 C14.40615429 56.99387488 13.37305382 57.00552624 12.30864727 57.01753068 C3.16357858 56.94251287 -4.81270503 54.53983649 -11.59617615 48.20433044 C-18.81570685 40.17444425 -20.4884441 32.04366697 -20.50242615 21.50120544 C-20.52691833 20.52925232 -20.55141052 19.55729919 -20.5766449 18.55589294 C-20.60054918 12.70731105 -20.25172654 8.9954597 -16.12742615 4.50120544 C-10.83034922 0.01570709 -6.6259489 -0.06723291 0 0 Z " fill="#F5871D" transform="translate(116.12742614746094,415.49879455566406)"/>
<path d="M0 0 C12.73004919 9.16382974 21.27947114 22.02888025 24.203125 37.5859375 C25.96920858 53.11874259 22.72318107 67.93347588 13.203125 80.5859375 C10.65597461 83.5137868 8.06543845 86.34419958 5.375 89.140625 C2.27915057 92.62623965 0.95898673 95.22040078 0.93188477 99.89208984 C0.92169815 100.7333139 0.91151154 101.57453796 0.90101624 102.44125366 C0.89887619 103.3423587 0.89673615 104.24346375 0.89453125 105.171875 C0.86937099 107.09114887 0.84397297 109.01041963 0.81835938 110.9296875 C0.78963073 113.9469319 0.76560518 116.96412241 0.74682617 119.98144531 C0.72512535 122.89937128 0.68568295 125.8166679 0.64453125 128.734375 C0.64441544 129.63143158 0.64429962 130.52848816 0.6441803 131.45272827 C0.53803232 138.19723213 -0.69802573 142.43938711 -5.546875 147.3984375 C-9.11969073 149.80321732 -11.54073942 150.33056936 -15.796875 150.5859375 C-15.838125 151.5965625 -15.879375 152.6071875 -15.921875 153.6484375 C-16.60580693 158.45550193 -19.2772068 161.40188558 -22.796875 164.5859375 C-27.01577075 167.20849432 -31.9605404 167.27806312 -36.796875 166.5859375 C-41.15368314 164.36643147 -44.19394797 161.7313398 -46.796875 157.5859375 C-47.546875 153.7734375 -47.546875 153.7734375 -47.796875 150.5859375 C-48.8075 150.5446875 -49.818125 150.5034375 -50.859375 150.4609375 C-55.56869093 149.79091288 -58.78749348 147.17496242 -61.796875 143.5859375 C-64.3465048 138.83222364 -64.07615657 134.15400378 -64.0703125 128.90234375 C-64.09059836 126.98632225 -64.11144909 125.07030666 -64.1328125 123.15429688 C-64.15541454 120.14797964 -64.17188772 117.14189638 -64.17773438 114.13549805 C-64.1872716 111.22402175 -64.22105768 108.31358609 -64.2578125 105.40234375 C-64.25276703 104.50842422 -64.24772156 103.6145047 -64.24252319 102.6934967 C-64.36778744 94.71952886 -67.58386445 90.66052008 -73.109375 85.0859375 C-84.09329848 73.05247932 -88.6900005 57.87367503 -88.14453125 41.8046875 C-87.24987415 27.61844023 -80.04684157 14.23296486 -69.796875 4.5859375 C-49.21188473 -12.40267344 -22.48127778 -14.66493948 0 0 Z " fill="#F4861E" transform="translate(167.796875,113.4140625)"/>
<path d="M0 0 C4.47989111 -0.12521195 8.9588095 -0.21508136 13.43994141 -0.2746582 C14.95867694 -0.29953709 16.47729618 -0.33345385 17.99560547 -0.37719727 C29.67530887 -0.70484571 39.30084134 0.44249773 48.9375 7.8125 C55.02428409 13.58752198 59.00718682 20.98074814 59.25447559 29.4384613 C59.2667302 31.19778366 59.2680478 32.95720306 59.26069641 34.71655273 C59.26643473 36.17572066 59.26643473 36.17572066 59.27228898 37.66436672 C59.28259985 40.92083085 59.27863044 44.17711804 59.2746582 47.43359375 C59.27900568 49.76954308 59.28418895 52.10549099 59.29014587 54.44143677 C59.30354197 60.78427331 59.30411394 67.12705029 59.30158257 73.46989822 C59.30037823 79.43298597 59.30658953 85.39606367 59.31201603 91.35914838 C59.32288722 103.88925195 59.32073087 116.4193286 59.31463119 128.94943368 C59.30946046 140.41018417 59.32072231 151.8708497 59.33972941 163.33158338 C59.35910401 175.10427954 59.3673646 186.8769355 59.36360615 198.64964771 C59.3617913 205.25725584 59.36444984 211.86478613 59.37832069 218.47238159 C59.39087277 224.68416899 59.38897968 230.89578595 59.37590981 237.10757065 C59.37353892 239.38843721 59.37629696 241.66931568 59.38453293 243.95016861 C59.39495832 247.0614606 59.38693328 250.17217624 59.3742218 253.28344727 C59.38159609 254.18792319 59.38897037 255.09239912 59.39656812 256.02428341 C59.35300613 261.085545 58.86163222 264.63895276 56 269 C51.49356113 272.08363034 47.79313301 272.3575176 42.4140625 272.29296875 C41.71227875 272.28872391 41.010495 272.28447906 40.28744507 272.28010559 C38.0662244 272.26343599 35.84594212 272.22580872 33.625 272.1875 C32.11069027 272.17243788 30.59636619 272.15875216 29.08203125 272.14648438 C25.38772068 272.11357183 21.69395207 272.06187259 18 272 C18.99 271.34 19.98 270.68 21 270 C24.02343069 267.2433426 25.83881192 265.38306002 26.12649983 261.12978297 C26.12720426 260.4213845 26.12790868 259.71298602 26.12863445 258.98312092 C26.1318589 258.1634834 26.13508335 257.34384589 26.1384055 256.49937087 C26.1368569 255.59919351 26.1353083 254.69901614 26.13371277 253.77156067 C26.13597833 252.81500712 26.13824388 251.85845356 26.14057809 250.87291354 C26.14693076 247.65330068 26.14608791 244.43372978 26.14526367 241.21411133 C26.14825443 238.91140691 26.15165677 236.608703 26.15544128 234.30599976 C26.16429539 228.03930851 26.16662003 221.7726309 26.16725707 215.505934 C26.16820537 210.27740544 26.17188288 205.04888007 26.17542917 199.82035273 C26.18311369 188.1888659 26.18609731 176.55738573 26.18542381 164.92589656 C26.18536388 163.87867762 26.18536388 163.87867762 26.18530273 162.81030273 C26.18526185 162.11130325 26.18522097 161.41230377 26.18517885 160.69212248 C26.18477267 149.37158233 26.19433444 138.05107548 26.2084411 126.73054496 C26.22281357 115.10484088 26.22952773 103.47915456 26.22884732 91.85344142 C26.22859227 85.32734131 26.23144755 78.80127886 26.24202538 72.27518654 C26.25170549 66.13487418 26.25178606 59.99463548 26.24450874 53.85432053 C26.2434627 51.60170954 26.24582695 49.34909398 26.2518692 47.09649086 C26.25958941 44.01869317 26.25494391 40.94114978 26.24723816 37.86335754 C26.25238172 36.97433379 26.25752529 36.08531003 26.26282471 35.16934615 C26.2058672 24.85639124 23.55807354 15.6892727 16.1796875 8.13671875 C11.29692917 4.1534159 6.08150562 2.42067959 0 1 C0 0.67 0 0.34 0 0 Z " fill="#463C4A" transform="translate(229,80)"/>
<path d="M0 0 C11.74402453 -0.06783226 23.4879185 -0.12284884 35.23209476 -0.15543652 C40.68564711 -0.17107857 46.13905822 -0.19229037 51.5925293 -0.22631836 C56.85746584 -0.2589636 62.12226671 -0.276864 67.38729668 -0.28463173 C69.39390638 -0.29016594 71.40050883 -0.30097292 73.40706062 -0.31719017 C76.22213798 -0.33903293 79.03665789 -0.34196404 81.85180664 -0.34057617 C83.09043205 -0.35675491 83.09043205 -0.35675491 84.3540802 -0.3732605 C90.21244865 -0.34209896 95.1087442 0.56901138 99.7421875 4.46484375 C103.83584376 9.78659689 104.46169649 13.30540092 104 20 C102.10672504 25.2590971 99.40216785 27.79008594 95 31 C91.06335428 32.31221524 87.31677809 32.13088917 83.21411133 32.11352539 C81.86746147 32.11374443 81.86746147 32.11374443 80.49360657 32.1139679 C77.52305697 32.11327064 74.55256991 32.10548697 71.58203125 32.09765625 C69.52365656 32.09579141 67.46528142 32.09436782 65.40690613 32.09336853 C59.98669206 32.08954859 54.56650476 32.07972273 49.14630127 32.06866455 C43.61641807 32.05843921 38.08653055 32.0538685 32.55664062 32.04882812 C21.70441343 32.03810002 10.85221313 32.02050742 0 32 C0 21.44 0 10.88 0 0 Z " fill="#F5871D" transform="translate(288,192)"/>
<path d="M0 0 C7.38017183 4.32862537 11.86698519 10.01546086 15.2578125 17.8203125 C16.50411693 22.65180104 16.51293941 27.28756765 16.51953125 32.2578125 C16.54402344 33.22976562 16.56851563 34.20171875 16.59375 35.203125 C16.61765429 41.05170689 16.26883165 44.76355825 12.14453125 49.2578125 C6.53155677 54.31156927 1.03732642 53.77930725 -6.25390625 53.6484375 C-7.44400299 53.64277771 -8.63409973 53.63711792 -9.86026001 53.63128662 C-13.65074361 53.60894701 -17.4402722 53.55875213 -21.23046875 53.5078125 C-23.80467382 53.48774451 -26.37889375 53.46949427 -28.953125 53.453125 C-35.25423053 53.40908995 -41.5547814 53.34220055 -47.85546875 53.2578125 C-47.95527953 49.00779284 -48.02737387 44.75841655 -48.07519531 40.50756836 C-48.09515626 39.06538998 -48.12233538 37.6232909 -48.15722656 36.18139648 C-48.35412979 27.82748767 -48.37828044 20.60922646 -43.85546875 13.2578125 C-43.16904297 12.06091797 -43.16904297 12.06091797 -42.46875 10.83984375 C-32.62342571 -2.55334515 -15.2901337 -7.25203688 0 0 Z " fill="#F5871D" transform="translate(479.85546875,42.7421875)"/>
<path d="M0 0 C1.25858322 -0.00960754 2.51716644 -0.01921509 3.81388855 -0.02911377 C5.19534118 -0.03396311 6.57679591 -0.0382416 7.95825195 -0.04199219 C9.37351992 -0.04774549 10.78878786 -0.0535032 12.20405579 -0.05926514 C15.17575442 -0.06977871 18.147426 -0.07561824 21.11914062 -0.07910156 C24.91426745 -0.08457048 28.70903263 -0.10856214 32.50404644 -0.13707352 C35.43041499 -0.1557686 38.3566979 -0.16090925 41.28312111 -0.16243744 C42.68127215 -0.1654518 44.07942213 -0.173439 45.47751427 -0.18662262 C60.86723781 -0.32131847 60.86723781 -0.32131847 66.7512207 4.62597656 C70.84487696 9.9477297 71.47072969 13.46653373 71.0090332 20.16113281 C69.11575825 25.42022991 66.41120105 27.95121875 62.0090332 31.16113281 C58.77416923 32.2394208 56.39956824 32.30097463 52.99633789 32.32226562 C51.13860748 32.33667694 51.13860748 32.33667694 49.24334717 32.35137939 C47.88920272 32.35622842 46.53505613 32.36050699 45.1809082 32.36425781 C43.78948974 32.37001305 42.39807128 32.37577073 41.00665283 32.38153076 C38.08800895 32.39203358 35.16939254 32.39788047 32.25073242 32.40136719 C28.52401295 32.40684065 24.79766091 32.43084666 21.07105637 32.45933914 C18.19530199 32.47803396 15.31963476 32.48317481 12.44382477 32.48470306 C11.07079314 32.48771635 9.69776255 32.49569985 8.32479095 32.50888824 C-7.08081476 32.64626833 -7.08081476 32.64626833 -13.8659668 26.59863281 C-16.89637317 22.56478062 -17.24897466 18.08673751 -16.9909668 13.16113281 C-15.34491867 7.25472483 -12.79499635 4.63638823 -7.9909668 1.16113281 C-5.25534944 -0.20667587 -3.06223099 0.01881316 0 0 Z " fill="#F5871D" transform="translate(320.990966796875,255.8388671875)"/>
<path d="M0 0 C21.12 0 42.24 0 64 0 C64 22.93181818 64 22.93181818 58.25 28.8125 C54.67718427 31.21727982 52.25613558 31.74463186 48 32 C47.95875 33.010625 47.9175 34.02125 47.875 35.0625 C47.19106807 39.86956443 44.5196682 42.81594808 41 46 C36.78110425 48.62255682 31.8363346 48.69212562 27 48 C22.64319186 45.78049397 19.60292703 43.1454023 17 39 C16.25 35.1875 16.25 35.1875 16 32 C14.989375 31.95875 13.97875 31.9175 12.9375 31.875 C8.22818407 31.20497538 5.00938152 28.58902492 2 25 C0 20 0 20 0 0 Z " fill="#B8AE9A" transform="translate(104,232)"/>
<path d="M0 0 C0.80034668 0.00620361 1.60069336 0.01240723 2.42529297 0.01879883 C3.03002441 0.0267749 3.63475586 0.03475098 4.2578125 0.04296875 C4.35762328 4.29298841 4.42971762 8.5423647 4.47753906 12.79321289 C4.49750001 14.23539127 4.52467913 15.67749035 4.55957031 17.11938477 C4.75625835 25.46416412 4.79693487 32.70755394 0.2578125 40.04296875 C-0.46341797 41.25726563 -0.46341797 41.25726563 -1.19921875 42.49609375 C-6.30190731 49.26046475 -12.30115241 54.12384677 -20.7421875 56.04296875 C-26.08254432 56.40229585 -31.39368309 56.326953 -36.7421875 56.23046875 C-38.19920493 56.21539616 -39.65623743 56.2017123 -41.11328125 56.18945312 C-44.65656675 56.15664778 -48.19927921 56.10500782 -51.7421875 56.04296875 C-52.20491766 41.91190164 -47.06073902 29.11672379 -37.9921875 18.29296875 C-28.39353796 8.09326526 -14.31080913 -0.14442101 0 0 Z " fill="#F9BD19" transform="translate(131.7421875,103.95703125)"/>
<path d="M0 0 C1.61551758 -0.0309375 1.61551758 -0.0309375 3.26367188 -0.0625 C10.14417004 -0.09624861 15.58782044 0.1182627 21.0546875 4.71484375 C25.14834376 10.03659689 25.77419649 13.55540092 25.3125 20.25 C23.41922504 25.5090971 20.71466785 28.04008594 16.3125 31.25 C11.64389146 32.80620285 6.95258063 32.47576168 2.0625 32.5 C1.03769531 32.520625 0.01289063 32.54125 -1.04296875 32.5625 C-8.6664191 32.60174556 -13.70453079 31.90873343 -19.5625 26.6875 C-22.59290637 22.65364781 -22.94550786 18.1756047 -22.6875 13.25 C-21.04145187 7.34359202 -18.49152955 4.72525542 -13.6875 1.25 C-9.63292117 -0.77728941 -4.45640409 0.02095898 0 0 Z " fill="#F5871D" transform="translate(366.6875,319.75)"/>
<path d="M0 0 C1.61551758 -0.0309375 1.61551758 -0.0309375 3.26367188 -0.0625 C10.14417004 -0.09624861 15.58782044 0.1182627 21.0546875 4.71484375 C25.14834376 10.03659689 25.77419649 13.55540092 25.3125 20.25 C23.41922504 25.5090971 20.71466785 28.04008594 16.3125 31.25 C11.64389146 32.80620285 6.95258063 32.47576168 2.0625 32.5 C1.03769531 32.520625 0.01289063 32.54125 -1.04296875 32.5625 C-8.6664191 32.60174556 -13.70453079 31.90873343 -19.5625 26.6875 C-22.59290637 22.65364781 -22.94550786 18.1756047 -22.6875 13.25 C-21.04145187 7.34359202 -18.49152955 4.72525542 -13.6875 1.25 C-9.63292117 -0.77728941 -4.45640409 0.02095898 0 0 Z " fill="#F5871D" transform="translate(366.6875,127.75)"/>
<path d="M0 0 C4.54154478 -0.08735463 9.08287232 -0.14051247 13.625 -0.1875 C15.55279297 -0.22520508 15.55279297 -0.22520508 17.51953125 -0.26367188 C19.38544922 -0.27817383 19.38544922 -0.27817383 21.2890625 -0.29296875 C23.00150146 -0.31653442 23.00150146 -0.31653442 24.74853516 -0.34057617 C29.06308193 0.111353 32.39657368 1.5717699 35.64453125 4.46484375 C39.85076922 9.76836119 40.46499359 13.25759299 40 20 C38.10672504 25.2590971 35.40216785 27.79008594 31 31 C27.1784462 32.27385127 23.5931553 32.12353188 19.61328125 32.09765625 C18.79627243 32.0962413 17.97926361 32.09482635 17.13749695 32.09336853 C14.52912732 32.08777294 11.92084366 32.07522129 9.3125 32.0625 C7.54362103 32.05748443 5.77474072 32.05292162 4.00585938 32.04882812 C-0.32946019 32.03780496 -4.66471552 32.02054338 -9 32 C-8.01 31.34 -7.02 30.68 -6 30 C-2.71981479 27.0092429 -1.1750097 25.08991969 -0.79467773 20.5480957 C-0.75802002 19.60023193 -0.7213623 18.65236816 -0.68359375 17.67578125 C-0.64169922 16.64775391 -0.59980469 15.61972656 -0.55664062 14.56054688 C-0.51732422 13.48869141 -0.47800781 12.41683594 -0.4375 11.3125 C-0.39431641 10.22904297 -0.35113281 9.14558594 -0.30664062 8.02929688 C-0.20053162 5.35299209 -0.09847639 2.67659474 0 0 Z " fill="#F4871E" transform="translate(288,320)"/>
<path d="M0 0 C6.4659375 -0.0928125 6.4659375 -0.0928125 13.0625 -0.1875 C14.40836182 -0.21481201 15.75422363 -0.24212402 17.14086914 -0.27026367 C24.34490065 -0.3202954 30.02130096 -0.3453187 35.7421875 4.46484375 C39.83584376 9.78659689 40.46169649 13.30540092 40 20 C38.10672504 25.2590971 35.40216785 27.79008594 31 31 C27.64264863 32.11911712 25.11794614 32.11365586 21.58203125 32.09765625 C19.88784058 32.09390991 19.88784058 32.09390991 18.15942383 32.09008789 C16.00769653 32.07643188 16.00769653 32.07643188 13.8125 32.0625 C9.254375 32.041875 4.69625 32.02125 0 32 C0 21.44 0 10.88 0 0 Z " fill="#F5871D" transform="translate(288,128)"/>
<path d="M0 0 C10.56 0 21.12 0 32 0 C32 10.56 32 21.12 32 32 C28.65875 32.0825 25.3175 32.165 21.875 32.25 C20.83327637 32.28641602 19.79155273 32.32283203 18.71826172 32.36035156 C12.9472427 32.4291731 9.53210725 31.94314878 5 28 C1.24826454 23.84267152 -0.13312744 20.90100822 -0.09765625 15.33203125 C-0.09515869 14.52741455 -0.09266113 13.72279785 -0.09008789 12.89379883 C-0.08098389 11.87697021 -0.07187988 10.8601416 -0.0625 9.8125 C-0.041875 6.574375 -0.02125 3.33625 0 0 Z " fill="#EFE0CC" transform="translate(104,232)"/>
<path d="M0 0 C3.40482075 1.44067219 5.6521478 4.01299236 8.1796875 6.62841797 C9.02261353 7.48126877 9.02261353 7.48126877 9.88256836 8.35134888 C11.67634859 10.16851351 13.45967127 11.99552103 15.2421875 13.82373047 C17.02637072 15.64305815 18.8126968 17.46020562 20.60180664 19.27468872 C21.71362643 20.40338506 22.82233774 21.53515426 23.92749023 22.67037964 C26.55269901 25.34608522 29.15698996 27.81147282 32.2421875 29.94873047 C27.72147729 30.03624546 23.2009868 30.08929657 18.6796875 30.13623047 C17.40287109 30.16136719 16.12605469 30.18650391 14.81054688 30.21240234 C6.39070452 30.2780115 0.83197791 30.14832627 -5.6328125 24.38623047 C-8.65833134 20.3588842 -9.03070243 15.86854612 -8.7578125 10.94873047 C-7.76553587 6.69726882 -5.09770205 -0.14868298 0 0 Z " fill="#F4871E" transform="translate(208.7578125,322.05126953125)"/>
<path d="M0 0 C4.9071948 1.15463407 7.71672633 4.22221157 11.1875 7.75 C11.98994141 8.53697266 11.98994141 8.53697266 12.80859375 9.33984375 C15.07427028 11.75956061 16.1474461 13.55373589 16.8125 16.8125 C15.95506415 20.8424485 14.47610314 22.31929333 11.1875 24.75 C8.375 25.5 8.375 25.5 5.1875 24.75 C2.21629915 22.7029128 -0.28653068 20.31746368 -2.8125 17.75 C-3.34746094 17.22535156 -3.88242188 16.70070312 -4.43359375 16.16015625 C-6.69927028 13.74043939 -7.7724461 11.94626411 -8.4375 8.6875 C-7.39423861 3.78417146 -4.82381222 1.28634992 0 0 Z " fill="#F4BA1B" transform="translate(207.8125,183.25)"/>
<path d="M0 0 C4.0299485 0.85743585 5.50679333 2.33639686 7.9375 5.625 C8.6875 8.4375 8.6875 8.4375 7.9375 11.625 C5.8904128 14.59620085 3.50496368 17.09903068 0.9375 19.625 C0.41285156 20.15996094 -0.11179687 20.69492188 -0.65234375 21.24609375 C-3.07206061 23.51177028 -4.86623589 24.5849461 -8.125 25.25 C-12.1549485 24.39256415 -13.63179333 22.91360314 -16.0625 19.625 C-16.8125 16.8125 -16.8125 16.8125 -16.0625 13.625 C-14.0154128 10.65379915 -11.62996368 8.15096932 -9.0625 5.625 C-8.53785156 5.09003906 -8.01320313 4.55507812 -7.47265625 4.00390625 C-5.05293939 1.73822972 -3.25876411 0.6650539 0 0 Z " fill="#F4BA1B" transform="translate(64.0625,183.375)"/>
<path d="M0 0 C4.0299485 0.85743585 5.50679333 2.33639686 7.9375 5.625 C8.6875 8.4375 8.6875 8.4375 7.9375 11.625 C5.8904128 14.59620085 3.50496368 17.09903068 0.9375 19.625 C0.41285156 20.15996094 -0.11179688 20.69492188 -0.65234375 21.24609375 C-3.07206061 23.51177028 -4.86623589 24.5849461 -8.125 25.25 C-12.1549485 24.39256415 -13.63179333 22.91360314 -16.0625 19.625 C-16.8125 16.8125 -16.8125 16.8125 -16.0625 13.625 C-14.0154128 10.65379915 -11.62996368 8.15096932 -9.0625 5.625 C-8.53785156 5.09003906 -8.01320312 4.55507812 -7.47265625 4.00390625 C-5.05293939 1.73822972 -3.25876411 0.6650539 0 0 Z " fill="#F4BA1B" transform="translate(216.0625,111.375)"/>
<path d="M0 0 C4.9071948 1.15463407 7.71672633 4.22221157 11.1875 7.75 C11.98994141 8.53697266 11.98994141 8.53697266 12.80859375 9.33984375 C15.07427028 11.75956061 16.1474461 13.55373589 16.8125 16.8125 C15.95506415 20.8424485 14.47610314 22.31929333 11.1875 24.75 C8.375 25.5 8.375 25.5 5.1875 24.75 C2.21629915 22.7029128 -0.28653068 20.31746368 -2.8125 17.75 C-3.34746094 17.22535156 -3.88242187 16.70070313 -4.43359375 16.16015625 C-6.69927028 13.74043939 -7.7724461 11.94626411 -8.4375 8.6875 C-7.39423861 3.78417146 -4.82381222 1.28634992 0 0 Z " fill="#F4BA1B" transform="translate(55.8125,111.25)"/>
<path d="M0 0 C4.64963504 2.29927007 4.64963504 2.29927007 6 5 C6.29123466 8.34919863 6.36462337 10.35756835 4.6875 13.3125 C1.52592843 16.47407157 -2.11841691 16.24837396 -6.375 16.375 C-10.79028114 16.3356218 -12.53327074 16.29941123 -16.3125 13.875 C-18.32483711 10.44657382 -18.81252952 8.9001417 -18 5 C-14.0594899 -1.71346165 -6.95616502 -1.03309382 0 0 Z " fill="#F5BB1B" transform="translate(226,152)"/>
<path d="M0 0 C4.64963504 2.29927007 4.64963504 2.29927007 6 5 C6.29123466 8.34919863 6.36462337 10.35756835 4.6875 13.3125 C1.52592843 16.47407157 -2.11841691 16.24837396 -6.375 16.375 C-10.79028114 16.3356218 -12.53327074 16.29941123 -16.3125 13.875 C-18.32483711 10.44657382 -18.81252952 8.9001417 -18 5 C-14.0594899 -1.71346165 -6.95616502 -1.03309382 0 0 Z " fill="#F5BB1B" transform="translate(58,152)"/>
<path d="M0 0 C0.66 0.33 1.32 0.66 2 1 C-1.63 4.63 -5.26 8.26 -9 12 C-9 7.8407692 -6.75316432 5.85455565 -4 3 C-1.6875 1.125 -1.6875 1.125 0 0 Z " fill="#4A485C" transform="translate(30,84)"/>
</svg>
